<svg xmlns="http://www.w3.org/2000/svg" viewBox="0 0 600 400">

  <rect width="600" height="400" fill="#111"/>
  <rect x="70" y="86" width="460" height="228" fill="#1b1b1b"/>

  <!-- ── ROBOTS ─────────────────────────────────────────────────────── -->

  <!-- R01 · normal eyes · float up -->
  <g transform="translate(100,128) rotate(15)">
    <animateTransform attributeName="transform" type="translate" additive="sum"
      values="0,0;0,-3;0,0" keyTimes="0;.5;1" calcMode="spline" keySplines=".45 0 .55 1;.45 0 .55 1"
      dur="3.2s" begin="0s" repeatCount="indefinite"/>
    <animateTransform attributeName="transform" type="rotate" additive="sum"
      values="0 0 0;360 0 0" dur="8s" begin="0s" repeatCount="indefinite"/>
    <line x1="0" y1="-22" x2="0" y2="-30" stroke="#777" stroke-width="1.5"/>
    <circle cx="0" cy="-32" r="2.5" fill="#888"/>
    <rect x="-13" y="-22" width="26" height="18" rx="2" fill="#222" stroke="#888" stroke-width="1.2"/>
    <ellipse cx="-5" cy="-13" rx="3" ry="3" fill="#bbb">
      <animate attributeName="ry" values="3;3;.4;3" keyTimes="0;.88;.9;1" dur="4.8s" begin="0s" repeatCount="indefinite"/>
    </ellipse>
    <ellipse cx="5" cy="-13" rx="3" ry="3" fill="#bbb">
      <animate attributeName="ry" values="3;3;.4;3" keyTimes="0;.88;.9;1" dur="4.8s" begin="0s" repeatCount="indefinite"/>
    </ellipse>
    <path d="M-5,-8 Q0,-6 5,-8" fill="none" stroke="#888" stroke-width="1.2" stroke-linecap="round">
      <animate attributeName="d" values="M-5,-8 Q0,-6 5,-8;M-5,-8 Q0,-3 5,-8;M-5,-8 Q0,-6 5,-8"
        dur="2.0s" begin="0s" repeatCount="indefinite" calcMode="spline" keySplines=".4 0 .6 1;.4 0 .6 1"/>
    </path>
    <rect x="-15" y="-2" width="30" height="18" rx="2" fill="#222" stroke="#888" stroke-width="1.2"/>
    <rect x="-27" y="0" width="10" height="6" rx="1.5" fill="#222" stroke="#777" stroke-width="1"/>
    <rect x="16"  y="0" width="10" height="6" rx="1.5" fill="#222" stroke="#777" stroke-width="1"/>
    <rect x="-12" y="17" width="8" height="12" rx="1.5" fill="#222" stroke="#888" stroke-width="1.2"/>
    <rect x="4"   y="17" width="8" height="12" rx="1.5" fill="#222" stroke="#888" stroke-width="1.2"/>
  </g>

  <!-- R02 · X-eyes flicker · drift -->
  <g transform="translate(167,124) rotate(-26)">
    <animateTransform attributeName="transform" type="translate" additive="sum"
      values="0,0;1,-2;0,0" keyTimes="0;.5;1" calcMode="spline" keySplines=".45 0 .55 1;.45 0 .55 1"
      dur="2.8s" begin=".4s" repeatCount="indefinite"/>
    <animateTransform attributeName="transform" type="rotate" additive="sum"
      values="0 0 0;-360 0 0" dur="5s" begin=".4s" repeatCount="indefinite"/>
    <line x1="0" y1="-22" x2="3" y2="-30" stroke="#777" stroke-width="1.5"/>
    <circle cx="3" cy="-32" r="2.5" fill="#883030"/>
    <rect x="-13" y="-22" width="26" height="18" rx="2" fill="#222" stroke="#888" stroke-width="1.2"/>
    <g><animate attributeName="opacity" values="1;.1;1;.08;1;1" keyTimes="0;.05;.1;.15;.2;1" dur="3.2s" begin=".4s" repeatCount="indefinite"/>
      <line x1="-8" y1="-16" x2="-2" y2="-10" stroke="#883030" stroke-width="1.5"/>
      <line x1="-2" y1="-16" x2="-8" y2="-10" stroke="#883030" stroke-width="1.5"/>
      <line x1="2"  y1="-16" x2="8"  y2="-10" stroke="#883030" stroke-width="1.5"/>
      <line x1="8"  y1="-16" x2="2"  y2="-10" stroke="#883030" stroke-width="1.5"/>
    </g>
    <path d="M-6,-7 L-3,-5 L0,-7 L3,-5 L6,-7" fill="none" stroke="#883030" stroke-width="1.2" stroke-linecap="round" stroke-linejoin="round">
      <animate attributeName="d" values="M-6,-7 L-3,-5 L0,-7 L3,-5 L6,-7;M-6,-6 L-3,-8 L0,-6 L3,-8 L6,-6;M-6,-7 L-3,-5 L0,-7 L3,-5 L6,-7"
        dur="0.55s" begin=".4s" repeatCount="indefinite"/>
    </path>
    <rect x="-15" y="-2" width="30" height="18" rx="2" fill="#222" stroke="#888" stroke-width="1.2"/>
    <rect x="-27" y="0" width="10" height="6" rx="1.5" fill="#222" stroke="#777" stroke-width="1"/>
    <rect x="16"  y="0" width="10" height="6" rx="1.5" fill="#222" stroke="#777" stroke-width="1" transform="rotate(-75,16,3)"/>
    <rect x="-12" y="17" width="8" height="12" rx="1.5" fill="#222" stroke="#888" stroke-width="1.2"/>
    <rect x="4"   y="17" width="8" height="12" rx="1.5" fill="#222" stroke="#888" stroke-width="1.2"/>
  </g>

  <!-- R03 · normal eyes · float (upside-down) -->
  <g transform="translate(234,130) rotate(180)">
    <animateTransform attributeName="transform" type="translate" additive="sum"
      values="0,0;0,-4;0,0" keyTimes="0;.5;1" calcMode="spline" keySplines=".45 0 .55 1;.45 0 .55 1"
      dur="3.6s" begin=".8s" repeatCount="indefinite"/>
    <animateTransform attributeName="transform" type="rotate" additive="sum"
      values="0 0 0;360 0 0" dur="10s" begin=".8s" repeatCount="indefinite"/>
    <line x1="0" y1="-22" x2="0" y2="-30" stroke="#777" stroke-width="1.5"/>
    <circle cx="0" cy="-32" r="2.5" fill="#888"/>
    <rect x="-13" y="-22" width="26" height="18" rx="2" fill="#222" stroke="#888" stroke-width="1.2"/>
    <ellipse cx="-5" cy="-13" rx="3" ry="3" fill="#bbb">
      <animate attributeName="ry" values="3;3;.4;3" keyTimes="0;.85;.88;1" dur="5.2s" begin=".8s" repeatCount="indefinite"/>
    </ellipse>
    <ellipse cx="5" cy="-13" rx="3" ry="3" fill="#bbb">
      <animate attributeName="ry" values="3;3;.4;3" keyTimes="0;.85;.88;1" dur="5.2s" begin=".8s" repeatCount="indefinite"/>
    </ellipse>
    <path d="M-5,-8 Q0,-6 5,-8" fill="none" stroke="#888" stroke-width="1.2" stroke-linecap="round">
      <animate attributeName="d" values="M-5,-8 Q0,-6 5,-8;M-5,-8 Q0,-3 5,-8;M-5,-8 Q0,-6 5,-8"
        dur="2.4s" begin=".8s" repeatCount="indefinite" calcMode="spline" keySplines=".4 0 .6 1;.4 0 .6 1"/>
    </path>
    <rect x="-15" y="-2" width="30" height="18" rx="2" fill="#222" stroke="#888" stroke-width="1.2"/>
    <rect x="-27" y="0" width="10" height="6" rx="1.5" fill="#222" stroke="#777" stroke-width="1"/>
    <rect x="16"  y="0" width="10" height="6" rx="1.5" fill="#222" stroke="#777" stroke-width="1"/>
    <rect x="-12" y="17" width="8" height="12" rx="1.5" fill="#222" stroke="#888" stroke-width="1.2"/>
    <rect x="4"   y="17" width="8" height="12" rx="1.5" fill="#222" stroke="#888" stroke-width="1.2"/>
  </g>

  <!-- R04 · asymm eyes (big blink + small red) · drift left -->
  <g transform="translate(302,123) rotate(32)">
    <animateTransform attributeName="transform" type="translate" additive="sum"
      values="0,0;-1,-3;0,0" keyTimes="0;.5;1" calcMode="spline" keySplines=".45 0 .55 1;.45 0 .55 1"
      dur="2.5s" begin="1.2s" repeatCount="indefinite"/>
    <animateTransform attributeName="transform" type="rotate" additive="sum"
      values="0 0 0;360 0 0" dur="6s" begin="1.2s" repeatCount="indefinite"/>
    <line x1="0" y1="-22" x2="-2" y2="-30" stroke="#777" stroke-width="1.5"/>
    <circle cx="-2" cy="-32" r="2.5" fill="#888"/>
    <rect x="-13" y="-22" width="26" height="18" rx="2" fill="#222" stroke="#888" stroke-width="1.2"/>
    <ellipse cx="-5" cy="-13" rx="5" ry="5" fill="#bbb">
      <animate attributeName="ry" values="5;5;.5;5" keyTimes="0;.87;.9;1" dur="4.0s" begin="1.2s" repeatCount="indefinite"/>
    </ellipse>
    <circle cx="6" cy="-13" r="1.5" fill="#883030"/>
    <path d="M-5,-8 Q2,-5 5,-8" fill="none" stroke="#888" stroke-width="1.2" stroke-linecap="round">
      <animate attributeName="d" values="M-5,-8 Q2,-5 5,-8;M-5,-8 Q-2,-4 5,-8;M-5,-8 Q2,-5 5,-8"
        dur="3.5s" begin="1.2s" repeatCount="indefinite"/>
    </path>
    <rect x="-15" y="-2" width="30" height="18" rx="2" fill="#222" stroke="#888" stroke-width="1.2"/>
    <rect x="-27" y="0" width="10" height="6" rx="1.5" fill="#222" stroke="#777" stroke-width="1" transform="rotate(72,-17,3)"/>
    <rect x="16"  y="0" width="10" height="6" rx="1.5" fill="#222" stroke="#777" stroke-width="1" transform="rotate(-72,16,3)"/>
    <rect x="-12" y="17" width="8" height="12" rx="1.5" fill="#222" stroke="#888" stroke-width="1.2"/>
    <rect x="4"   y="17" width="8" height="12" rx="1.5" fill="#222" stroke="#888" stroke-width="1.2"/>
  </g>

  <!-- R05 · ring eyes pulse · float -->
  <g transform="translate(370,127) rotate(-14)">
    <animateTransform attributeName="transform" type="translate" additive="sum"
      values="0,0;0,-2;0,0" keyTimes="0;.5;1" calcMode="spline" keySplines=".45 0 .55 1;.45 0 .55 1"
      dur="4.1s" begin="1.6s" repeatCount="indefinite"/>
    <animateTransform attributeName="transform" type="rotate" additive="sum"
      values="0 0 0;-360 0 0" dur="12s" begin="1.6s" repeatCount="indefinite"/>
    <line x1="0" y1="-22" x2="0" y2="-30" stroke="#777" stroke-width="1.5"/>
    <circle cx="0" cy="-32" r="2.5" fill="#9a7028"/>
    <rect x="-13" y="-22" width="26" height="18" rx="2" fill="#222" stroke="#888" stroke-width="1.2"/>
    <circle cx="-5" cy="-13" r="3.5" fill="none" stroke="#9a7028" stroke-width="1.2">
      <animate attributeName="r" values="3.5;4.8;3.5" dur="2.2s" begin="1.6s" repeatCount="indefinite" calcMode="spline" keySplines=".4 0 .6 1;.4 0 .6 1"/>
      <animate attributeName="opacity" values=".9;.25;.9" dur="2.2s" begin="1.6s" repeatCount="indefinite" calcMode="spline" keySplines=".4 0 .6 1;.4 0 .6 1"/>
    </circle>
    <circle cx="-5" cy="-13" r="1.2" fill="#9a7028">
      <animate attributeName="opacity" values=".6;1;.6" dur="2.2s" begin="1.6s" repeatCount="indefinite"/>
    </circle>
    <circle cx="5" cy="-13" r="3.5" fill="none" stroke="#9a7028" stroke-width="1.2">
      <animate attributeName="r" values="3.5;4.8;3.5" dur="2.2s" begin="1.6s" repeatCount="indefinite" calcMode="spline" keySplines=".4 0 .6 1;.4 0 .6 1"/>
      <animate attributeName="opacity" values=".9;.25;.9" dur="2.2s" begin="1.6s" repeatCount="indefinite" calcMode="spline" keySplines=".4 0 .6 1;.4 0 .6 1"/>
    </circle>
    <circle cx="5" cy="-13" r="1.2" fill="#9a7028">
      <animate attributeName="opacity" values=".6;1;.6" dur="2.2s" begin="1.6s" repeatCount="indefinite"/>
    </circle>
    <ellipse cx="0" cy="-7" rx="3.5" ry="1.8" fill="#1b1b1b" stroke="#9a7028" stroke-width="1">
      <animate attributeName="ry" values="1.8;3.5;1.8" dur="2.2s" begin="1.6s" repeatCount="indefinite" calcMode="spline" keySplines=".4 0 .6 1;.4 0 .6 1"/>
    </ellipse>
    <rect x="-15" y="-2" width="30" height="18" rx="2" fill="#222" stroke="#888" stroke-width="1.2"/>
    <rect x="-27" y="0" width="10" height="6" rx="1.5" fill="#222" stroke="#777" stroke-width="1"/>
    <rect x="16"  y="0" width="10" height="6" rx="1.5" fill="#222" stroke="#777" stroke-width="1" transform="rotate(-72,16,3)"/>
    <rect x="-12" y="17" width="8" height="12" rx="1.5" fill="#222" stroke="#888" stroke-width="1.2"/>
    <rect x="4"   y="17" width="8" height="12" rx="1.5" fill="#222" stroke="#888" stroke-width="1.2"/>
  </g>

  <!-- R06 · X-eyes flicker · drift right -->
  <g transform="translate(436,124) rotate(22)">
    <animateTransform attributeName="transform" type="translate" additive="sum"
      values="0,0;2,-2;0,0" keyTimes="0;.5;1" calcMode="spline" keySplines=".45 0 .55 1;.45 0 .55 1"
      dur="3.0s" begin="2.0s" repeatCount="indefinite"/>
    <animateTransform attributeName="transform" type="rotate" additive="sum"
      values="0 0 0;360 0 0" dur="4.5s" begin="2.0s" repeatCount="indefinite"/>
    <line x1="0" y1="-22" x2="2" y2="-30" stroke="#777" stroke-width="1.5"/>
    <circle cx="2" cy="-32" r="2.5" fill="#883030"/>
    <rect x="-13" y="-22" width="26" height="18" rx="2" fill="#222" stroke="#888" stroke-width="1.2"/>
    <g><animate attributeName="opacity" values="1;.08;1;.12;1;1" keyTimes="0;.04;.08;.12;.16;1" dur="2.8s" begin="2.0s" repeatCount="indefinite"/>
      <line x1="-8" y1="-16" x2="-2" y2="-10" stroke="#883030" stroke-width="1.5"/>
      <line x1="-2" y1="-16" x2="-8" y2="-10" stroke="#883030" stroke-width="1.5"/>
      <line x1="2"  y1="-16" x2="8"  y2="-10" stroke="#883030" stroke-width="1.5"/>
      <line x1="8"  y1="-16" x2="2"  y2="-10" stroke="#883030" stroke-width="1.5"/>
    </g>
    <path d="M-6,-7 L-3,-5 L0,-7 L3,-5 L6,-7" fill="none" stroke="#883030" stroke-width="1.2" stroke-linecap="round" stroke-linejoin="round">
      <animate attributeName="d" values="M-6,-7 L-3,-5 L0,-7 L3,-5 L6,-7;M-6,-6 L-3,-8 L0,-6 L3,-8 L6,-6;M-6,-7 L-3,-5 L0,-7 L3,-5 L6,-7"
        dur="0.65s" begin="2.0s" repeatCount="indefinite"/>
    </path>
    <rect x="-15" y="-2" width="30" height="18" rx="2" fill="#222" stroke="#888" stroke-width="1.2"/>
    <rect x="-27" y="0" width="10" height="6" rx="1.5" fill="#222" stroke="#777" stroke-width="1" transform="rotate(72,-17,3)"/>
    <rect x="16"  y="0" width="10" height="6" rx="1.5" fill="#222" stroke="#777" stroke-width="1"/>
    <rect x="-12" y="17" width="8" height="12" rx="1.5" fill="#222" stroke="#888" stroke-width="1.2"/>
    <rect x="4"   y="17" width="8" height="12" rx="1.5" fill="#222" stroke="#888" stroke-width="1.2"/>
  </g>

  <!-- R07 · ring eyes pulse · float -->
  <g transform="translate(498,127) rotate(-19)">
    <animateTransform attributeName="transform" type="translate" additive="sum"
      values="0,0;0,-3;0,0" keyTimes="0;.5;1" calcMode="spline" keySplines=".45 0 .55 1;.45 0 .55 1"
      dur="2.7s" begin="2.4s" repeatCount="indefinite"/>
    <animateTransform attributeName="transform" type="rotate" additive="sum"
      values="0 0 0;-360 0 0" dur="7s" begin="2.4s" repeatCount="indefinite"/>
    <line x1="0" y1="-22" x2="-1" y2="-30" stroke="#777" stroke-width="1.5"/>
    <circle cx="-1" cy="-32" r="2.5" fill="#9a7028"/>
    <rect x="-13" y="-22" width="26" height="18" rx="2" fill="#222" stroke="#888" stroke-width="1.2"/>
    <circle cx="-5" cy="-13" r="3.5" fill="none" stroke="#9a7028" stroke-width="1.2">
      <animate attributeName="r" values="3.5;4.8;3.5" dur="1.9s" begin="2.4s" repeatCount="indefinite" calcMode="spline" keySplines=".4 0 .6 1;.4 0 .6 1"/>
      <animate attributeName="opacity" values=".9;.25;.9" dur="1.9s" begin="2.4s" repeatCount="indefinite" calcMode="spline" keySplines=".4 0 .6 1;.4 0 .6 1"/>
    </circle>
    <circle cx="-5" cy="-13" r="1.2" fill="#9a7028">
      <animate attributeName="opacity" values=".6;1;.6" dur="1.9s" begin="2.4s" repeatCount="indefinite"/>
    </circle>
    <circle cx="5" cy="-13" r="3.5" fill="none" stroke="#9a7028" stroke-width="1.2">
      <animate attributeName="r" values="3.5;4.8;3.5" dur="1.9s" begin="2.4s" repeatCount="indefinite" calcMode="spline" keySplines=".4 0 .6 1;.4 0 .6 1"/>
      <animate attributeName="opacity" values=".9;.25;.9" dur="1.9s" begin="2.4s" repeatCount="indefinite" calcMode="spline" keySplines=".4 0 .6 1;.4 0 .6 1"/>
    </circle>
    <circle cx="5" cy="-13" r="1.2" fill="#9a7028">
      <animate attributeName="opacity" values=".6;1;.6" dur="1.9s" begin="2.4s" repeatCount="indefinite"/>
    </circle>
    <ellipse cx="0" cy="-7" rx="3.5" ry="1.8" fill="#1b1b1b" stroke="#9a7028" stroke-width="1">
      <animate attributeName="ry" values="1.8;3.5;1.8" dur="1.9s" begin="2.4s" repeatCount="indefinite" calcMode="spline" keySplines=".4 0 .6 1;.4 0 .6 1"/>
    </ellipse>
    <rect x="-15" y="-2" width="30" height="18" rx="2" fill="#222" stroke="#888" stroke-width="1.2"/>
    <rect x="-27" y="0" width="10" height="6" rx="1.5" fill="#222" stroke="#777" stroke-width="1"/>
    <rect x="16"  y="0" width="10" height="6" rx="1.5" fill="#222" stroke="#777" stroke-width="1"/>
    <rect x="-12" y="17" width="8" height="12" rx="1.5" fill="#222" stroke="#888" stroke-width="1.2"/>
    <rect x="4"   y="17" width="8" height="12" rx="1.5" fill="#222" stroke="#888" stroke-width="1.2"/>
  </g>

  <!-- R08 · ring eyes pulse · float -->
  <g transform="translate(133,202) rotate(-40)">
    <animateTransform attributeName="transform" type="translate" additive="sum"
      values="0,0;0,-3;0,0" keyTimes="0;.5;1" calcMode="spline" keySplines=".45 0 .55 1;.45 0 .55 1"
      dur="3.8s" begin=".2s" repeatCount="indefinite"/>
    <animateTransform attributeName="transform" type="rotate" additive="sum"
      values="0 0 0;360 0 0" dur="9s" begin=".2s" repeatCount="indefinite"/>
    <line x1="0" y1="-22" x2="-3" y2="-30" stroke="#777" stroke-width="1.5"/>
    <circle cx="-3" cy="-32" r="2.5" fill="#9a7028"/>
    <rect x="-13" y="-22" width="26" height="18" rx="2" fill="#222" stroke="#888" stroke-width="1.2"/>
    <circle cx="-5" cy="-13" r="3.5" fill="none" stroke="#9a7028" stroke-width="1.2">
      <animate attributeName="r" values="3.5;4.8;3.5" dur="2.4s" begin=".6s" repeatCount="indefinite" calcMode="spline" keySplines=".4 0 .6 1;.4 0 .6 1"/>
      <animate attributeName="opacity" values=".9;.25;.9" dur="2.4s" begin=".6s" repeatCount="indefinite" calcMode="spline" keySplines=".4 0 .6 1;.4 0 .6 1"/>
    </circle>
    <circle cx="-5" cy="-13" r="1.2" fill="#9a7028">
      <animate attributeName="opacity" values=".6;1;.6" dur="2.4s" begin=".6s" repeatCount="indefinite"/>
    </circle>
    <circle cx="5" cy="-13" r="3.5" fill="none" stroke="#9a7028" stroke-width="1.2">
      <animate attributeName="r" values="3.5;4.8;3.5" dur="2.4s" begin=".6s" repeatCount="indefinite" calcMode="spline" keySplines=".4 0 .6 1;.4 0 .6 1"/>
      <animate attributeName="opacity" values=".9;.25;.9" dur="2.4s" begin=".6s" repeatCount="indefinite" calcMode="spline" keySplines=".4 0 .6 1;.4 0 .6 1"/>
    </circle>
    <circle cx="5" cy="-13" r="1.2" fill="#9a7028">
      <animate attributeName="opacity" values=".6;1;.6" dur="2.4s" begin=".6s" repeatCount="indefinite"/>
    </circle>
    <ellipse cx="0" cy="-7" rx="3.5" ry="1.8" fill="#1b1b1b" stroke="#9a7028" stroke-width="1">
      <animate attributeName="ry" values="1.8;3.5;1.8" dur="2.4s" begin=".6s" repeatCount="indefinite" calcMode="spline" keySplines=".4 0 .6 1;.4 0 .6 1"/>
    </ellipse>
    <rect x="-15" y="-2" width="30" height="18" rx="2" fill="#222" stroke="#888" stroke-width="1.2"/>
    <rect x="-27" y="0" width="10" height="6" rx="1.5" fill="#222" stroke="#777" stroke-width="1" transform="rotate(72,-17,3)"/>
    <rect x="16"  y="0" width="10" height="6" rx="1.5" fill="#222" stroke="#777" stroke-width="1" transform="rotate(-72,16,3)"/>
    <rect x="-12" y="17" width="8" height="12" rx="1.5" fill="#222" stroke="#888" stroke-width="1.2"/>
    <rect x="4"   y="17" width="8" height="12" rx="1.5" fill="#222" stroke="#888" stroke-width="1.2"/>
  </g>

  <!-- R09 · normal eyes blink · float (sideways) -->
  <g transform="translate(202,197) rotate(91)">
    <animateTransform attributeName="transform" type="translate" additive="sum"
      values="0,0;0,-3;0,0" keyTimes="0;.5;1" calcMode="spline" keySplines=".45 0 .55 1;.45 0 .55 1"
      dur="2.6s" begin=".6s" repeatCount="indefinite"/>
    <animateTransform attributeName="transform" type="rotate" additive="sum"
      values="0 0 0;-360 0 0" dur="5.5s" begin=".6s" repeatCount="indefinite"/>
    <line x1="0" y1="-22" x2="0" y2="-30" stroke="#777" stroke-width="1.5"/>
    <circle cx="0" cy="-32" r="2.5" fill="#888"/>
    <rect x="-13" y="-22" width="26" height="18" rx="2" fill="#222" stroke="#888" stroke-width="1.2"/>
    <ellipse cx="-5" cy="-13" rx="3" ry="3" fill="#bbb">
      <animate attributeName="ry" values="3;3;.4;3" keyTimes="0;.9;.92;1" dur="4.5s" begin=".2s" repeatCount="indefinite"/>
    </ellipse>
    <ellipse cx="5" cy="-13" rx="3" ry="3" fill="#bbb">
      <animate attributeName="ry" values="3;3;.4;3" keyTimes="0;.9;.92;1" dur="4.5s" begin=".2s" repeatCount="indefinite"/>
    </ellipse>
    <path d="M-5,-8 Q0,-6 5,-8" fill="none" stroke="#888" stroke-width="1.2" stroke-linecap="round">
      <animate attributeName="d" values="M-5,-8 Q0,-6 5,-8;M-5,-8 Q0,-3 5,-8;M-5,-8 Q0,-6 5,-8"
        dur="1.8s" begin=".6s" repeatCount="indefinite" calcMode="spline" keySplines=".4 0 .6 1;.4 0 .6 1"/>
    </path>
    <rect x="-15" y="-2" width="30" height="18" rx="2" fill="#222" stroke="#888" stroke-width="1.2"/>
    <rect x="-27" y="0" width="10" height="6" rx="1.5" fill="#222" stroke="#777" stroke-width="1"/>
    <rect x="16"  y="0" width="10" height="6" rx="1.5" fill="#222" stroke="#777" stroke-width="1"/>
    <rect x="-12" y="17" width="8" height="12" rx="1.5" fill="#222" stroke="#888" stroke-width="1.2"/>
    <rect x="4"   y="17" width="8" height="12" rx="1.5" fill="#222" stroke="#888" stroke-width="1.2"/>
  </g>

  <!-- R10 · X-eyes flicker · float left -->
  <g transform="translate(272,204) rotate(-20)">
    <animateTransform attributeName="transform" type="translate" additive="sum"
      values="0,0;-1,-4;0,0" keyTimes="0;.5;1" calcMode="spline" keySplines=".45 0 .55 1;.45 0 .55 1"
      dur="4.0s" begin="1.0s" repeatCount="indefinite"/>
    <animateTransform attributeName="transform" type="rotate" additive="sum"
      values="0 0 0;360 0 0" dur="11s" begin="1.0s" repeatCount="indefinite"/>
    <line x1="0" y1="-22" x2="0" y2="-30" stroke="#777" stroke-width="1.5"/>
    <circle cx="0" cy="-32" r="2.5" fill="#883030"/>
    <rect x="-13" y="-22" width="26" height="18" rx="2" fill="#222" stroke="#888" stroke-width="1.2"/>
    <g><animate attributeName="opacity" values="1;1;.07;.9;.07;1;1" keyTimes="0;.3;.34;.38;.42;.46;1" dur="3.5s" begin=".6s" repeatCount="indefinite"/>
      <line x1="-8" y1="-16" x2="-2" y2="-10" stroke="#883030" stroke-width="1.5"/>
      <line x1="-2" y1="-16" x2="-8" y2="-10" stroke="#883030" stroke-width="1.5"/>
      <line x1="2"  y1="-16" x2="8"  y2="-10" stroke="#883030" stroke-width="1.5"/>
      <line x1="8"  y1="-16" x2="2"  y2="-10" stroke="#883030" stroke-width="1.5"/>
    </g>
    <path d="M-6,-7 L-3,-5 L0,-7 L3,-5 L6,-7" fill="none" stroke="#883030" stroke-width="1.2" stroke-linecap="round" stroke-linejoin="round">
      <animate attributeName="d" values="M-6,-7 L-3,-5 L0,-7 L3,-5 L6,-7;M-6,-6 L-3,-8 L0,-6 L3,-8 L6,-6;M-6,-7 L-3,-5 L0,-7 L3,-5 L6,-7"
        dur="0.5s" begin="1.0s" repeatCount="indefinite"/>
    </path>
    <rect x="-15" y="-2" width="30" height="18" rx="2" fill="#222" stroke="#888" stroke-width="1.2"/>
    <rect x="-27" y="0" width="10" height="6" rx="1.5" fill="#222" stroke="#777" stroke-width="1" transform="rotate(50,-17,3)"/>
    <rect x="16"  y="0" width="10" height="6" rx="1.5" fill="#222" stroke="#777" stroke-width="1" transform="rotate(-50,16,3)"/>
    <rect x="-12" y="17" width="8" height="12" rx="1.5" fill="#222" stroke="#888" stroke-width="1.2"/>
    <rect x="4"   y="17" width="8" height="12" rx="1.5" fill="#222" stroke="#888" stroke-width="1.2"/>
  </g>

  <!-- R11 · normal eyes blink · drift (nearly upside-down) -->
  <g transform="translate(340,198) rotate(150)">
    <animateTransform attributeName="transform" type="translate" additive="sum"
      values="0,0;1,-2;0,0" keyTimes="0;.5;1" calcMode="spline" keySplines=".45 0 .55 1;.45 0 .55 1"
      dur="3.3s" begin="1.4s" repeatCount="indefinite"/>
    <animateTransform attributeName="transform" type="rotate" additive="sum"
      values="0 0 0;-360 0 0" dur="6s" begin="1.4s" repeatCount="indefinite"/>
    <line x1="0" y1="-22" x2="0" y2="-30" stroke="#777" stroke-width="1.5"/>
    <circle cx="0" cy="-32" r="2.5" fill="#888"/>
    <rect x="-13" y="-22" width="26" height="18" rx="2" fill="#222" stroke="#888" stroke-width="1.2"/>
    <ellipse cx="-5" cy="-13" rx="3" ry="3" fill="#bbb">
      <animate attributeName="ry" values="3;3;.4;3" keyTimes="0;.86;.89;1" dur="5.5s" begin="1.0s" repeatCount="indefinite"/>
    </ellipse>
    <ellipse cx="5" cy="-13" rx="3" ry="3" fill="#bbb">
      <animate attributeName="ry" values="3;3;.4;3" keyTimes="0;.86;.89;1" dur="5.5s" begin="1.0s" repeatCount="indefinite"/>
    </ellipse>
    <path d="M-5,-8 Q0,-6 5,-8" fill="none" stroke="#888" stroke-width="1.2" stroke-linecap="round">
      <animate attributeName="d" values="M-5,-8 Q0,-6 5,-8;M-5,-8 Q0,-3 5,-8;M-5,-8 Q0,-6 5,-8"
        dur="2.6s" begin="1.4s" repeatCount="indefinite" calcMode="spline" keySplines=".4 0 .6 1;.4 0 .6 1"/>
    </path>
    <rect x="-15" y="-2" width="30" height="18" rx="2" fill="#222" stroke="#888" stroke-width="1.2"/>
    <rect x="-27" y="0" width="10" height="6" rx="1.5" fill="#222" stroke="#777" stroke-width="1"/>
    <rect x="16"  y="0" width="10" height="6" rx="1.5" fill="#222" stroke="#777" stroke-width="1"/>
    <rect x="-12" y="17" width="8" height="12" rx="1.5" fill="#222" stroke="#888" stroke-width="1.2"/>
    <rect x="4"   y="17" width="8" height="12" rx="1.5" fill="#222" stroke="#888" stroke-width="1.2"/>
  </g>

  <!-- R12 · asymm eyes (big blink + small red) · drift right -->
  <g transform="translate(410,204) rotate(47)">
    <animateTransform attributeName="transform" type="translate" additive="sum"
      values="0,0;2,-2;0,0" keyTimes="0;.5;1" calcMode="spline" keySplines=".45 0 .55 1;.45 0 .55 1"
      dur="2.9s" begin="1.8s" repeatCount="indefinite"/>
    <animateTransform attributeName="transform" type="rotate" additive="sum"
      values="0 0 0;360 0 0" dur="8s" begin="1.8s" repeatCount="indefinite"/>
    <line x1="0" y1="-22" x2="2" y2="-30" stroke="#777" stroke-width="1.5"/>
    <circle cx="2" cy="-32" r="2.5" fill="#888"/>
    <rect x="-13" y="-22" width="26" height="18" rx="2" fill="#222" stroke="#888" stroke-width="1.2"/>
    <ellipse cx="-5" cy="-13" rx="5" ry="5" fill="#bbb">
      <animate attributeName="ry" values="5;5;.5;5" keyTimes="0;.87;.9;1" dur="4.2s" begin="1.4s" repeatCount="indefinite"/>
    </ellipse>
    <circle cx="6" cy="-13" r="1.5" fill="#883030"/>
    <path d="M-5,-8 Q2,-5 5,-8" fill="none" stroke="#888" stroke-width="1.2" stroke-linecap="round">
      <animate attributeName="d" values="M-5,-8 Q2,-5 5,-8;M-5,-8 Q-2,-4 5,-8;M-5,-8 Q2,-5 5,-8"
        dur="2.8s" begin="1.8s" repeatCount="indefinite"/>
    </path>
    <rect x="-15" y="-2" width="30" height="18" rx="2" fill="#222" stroke="#888" stroke-width="1.2"/>
    <rect x="-27" y="0" width="10" height="6" rx="1.5" fill="#222" stroke="#777" stroke-width="1" transform="rotate(72,-17,3)"/>
    <rect x="16"  y="0" width="10" height="6" rx="1.5" fill="#222" stroke="#777" stroke-width="1" transform="rotate(-72,16,3)"/>
    <rect x="-12" y="17" width="8" height="12" rx="1.5" fill="#222" stroke="#888" stroke-width="1.2"/>
    <rect x="4"   y="17" width="8" height="12" rx="1.5" fill="#222" stroke="#888" stroke-width="1.2"/>
  </g>

  <!-- R13 · X-eyes flicker · float -->
  <g transform="translate(473,199) rotate(29)">
    <animateTransform attributeName="transform" type="translate" additive="sum"
      values="0,0;0,-4;0,0" keyTimes="0;.5;1" calcMode="spline" keySplines=".45 0 .55 1;.45 0 .55 1"
      dur="3.5s" begin="2.2s" repeatCount="indefinite"/>
    <animateTransform attributeName="transform" type="rotate" additive="sum"
      values="0 0 0;-360 0 0" dur="4s" begin="2.2s" repeatCount="indefinite"/>
    <line x1="0" y1="-22" x2="2" y2="-30" stroke="#777" stroke-width="1.5"/>
    <circle cx="2" cy="-32" r="2.5" fill="#883030"/>
    <rect x="-13" y="-22" width="26" height="18" rx="2" fill="#222" stroke="#888" stroke-width="1.2"/>
    <g><animate attributeName="opacity" values="1;.1;1;.06;1;1" keyTimes="0;.05;.1;.14;.18;1" dur="3.0s" begin="2.2s" repeatCount="indefinite"/>
      <line x1="-8" y1="-16" x2="-2" y2="-10" stroke="#883030" stroke-width="1.5"/>
      <line x1="-2" y1="-16" x2="-8" y2="-10" stroke="#883030" stroke-width="1.5"/>
      <line x1="2"  y1="-16" x2="8"  y2="-10" stroke="#883030" stroke-width="1.5"/>
      <line x1="8"  y1="-16" x2="2"  y2="-10" stroke="#883030" stroke-width="1.5"/>
    </g>
    <path d="M-6,-7 L-3,-5 L0,-7 L3,-5 L6,-7" fill="none" stroke="#883030" stroke-width="1.2" stroke-linecap="round" stroke-linejoin="round">
      <animate attributeName="d" values="M-6,-7 L-3,-5 L0,-7 L3,-5 L6,-7;M-6,-6 L-3,-8 L0,-6 L3,-8 L6,-6;M-6,-7 L-3,-5 L0,-7 L3,-5 L6,-7"
        dur="0.7s" begin="2.2s" repeatCount="indefinite"/>
    </path>
    <rect x="-15" y="-2" width="30" height="18" rx="2" fill="#222" stroke="#888" stroke-width="1.2"/>
    <rect x="-27" y="0" width="10" height="6" rx="1.5" fill="#222" stroke="#777" stroke-width="1"/>
    <rect x="16"  y="0" width="10" height="6" rx="1.5" fill="#222" stroke="#777" stroke-width="1"/>
    <rect x="-12" y="17" width="8" height="12" rx="1.5" fill="#222" stroke="#888" stroke-width="1.2"/>
    <rect x="4"   y="17" width="8" height="12" rx="1.5" fill="#222" stroke="#888" stroke-width="1.2"/>
  </g>

  <!-- R14 · ring eyes pulse · drift -->
  <g transform="translate(100,275) rotate(25)">
    <animateTransform attributeName="transform" type="translate" additive="sum"
      values="0,0;1,-3;0,0" keyTimes="0;.5;1" calcMode="spline" keySplines=".45 0 .55 1;.45 0 .55 1"
      dur="4.2s" begin=".3s" repeatCount="indefinite"/>
    <animateTransform attributeName="transform" type="rotate" additive="sum"
      values="0 0 0;360 0 0" dur="10s" begin=".3s" repeatCount="indefinite"/>
    <line x1="0" y1="-22" x2="1" y2="-30" stroke="#777" stroke-width="1.5"/>
    <circle cx="1" cy="-32" r="2.5" fill="#9a7028"/>
    <rect x="-13" y="-22" width="26" height="18" rx="2" fill="#222" stroke="#888" stroke-width="1.2"/>
    <circle cx="-5" cy="-13" r="3.5" fill="none" stroke="#9a7028" stroke-width="1.2">
      <animate attributeName="r" values="3.5;4.8;3.5" dur="2.1s" begin=".3s" repeatCount="indefinite" calcMode="spline" keySplines=".4 0 .6 1;.4 0 .6 1"/>
      <animate attributeName="opacity" values=".9;.25;.9" dur="2.1s" begin=".3s" repeatCount="indefinite" calcMode="spline" keySplines=".4 0 .6 1;.4 0 .6 1"/>
    </circle>
    <circle cx="-5" cy="-13" r="1.2" fill="#9a7028">
      <animate attributeName="opacity" values=".6;1;.6" dur="2.1s" begin=".3s" repeatCount="indefinite"/>
    </circle>
    <circle cx="5" cy="-13" r="3.5" fill="none" stroke="#9a7028" stroke-width="1.2">
      <animate attributeName="r" values="3.5;4.8;3.5" dur="2.1s" begin=".3s" repeatCount="indefinite" calcMode="spline" keySplines=".4 0 .6 1;.4 0 .6 1"/>
      <animate attributeName="opacity" values=".9;.25;.9" dur="2.1s" begin=".3s" repeatCount="indefinite" calcMode="spline" keySplines=".4 0 .6 1;.4 0 .6 1"/>
    </circle>
    <circle cx="5" cy="-13" r="1.2" fill="#9a7028">
      <animate attributeName="opacity" values=".6;1;.6" dur="2.1s" begin=".3s" repeatCount="indefinite"/>
    </circle>
    <ellipse cx="0" cy="-7" rx="3.5" ry="1.8" fill="#1b1b1b" stroke="#9a7028" stroke-width="1">
      <animate attributeName="ry" values="1.8;3.5;1.8" dur="2.1s" begin=".3s" repeatCount="indefinite" calcMode="spline" keySplines=".4 0 .6 1;.4 0 .6 1"/>
    </ellipse>
    <rect x="-15" y="-2" width="30" height="18" rx="2" fill="#222" stroke="#888" stroke-width="1.2"/>
    <rect x="-27" y="0" width="10" height="6" rx="1.5" fill="#222" stroke="#777" stroke-width="1" transform="rotate(50,-17,3)"/>
    <rect x="16"  y="0" width="10" height="6" rx="1.5" fill="#222" stroke="#777" stroke-width="1"/>
    <rect x="-12" y="17" width="8" height="12" rx="1.5" fill="#222" stroke="#888" stroke-width="1.2"/>
    <rect x="4"   y="17" width="8" height="12" rx="1.5" fill="#222" stroke="#888" stroke-width="1.2"/>
  </g>

  <!-- R15 · X-eyes flicker · drift left -->
  <g transform="translate(170,272) rotate(-37)">
    <animateTransform attributeName="transform" type="translate" additive="sum"
      values="0,0;-2,-2;0,0" keyTimes="0;.5;1" calcMode="spline" keySplines=".45 0 .55 1;.45 0 .55 1"
      dur="2.7s" begin=".7s" repeatCount="indefinite"/>
    <animateTransform attributeName="transform" type="rotate" additive="sum"
      values="0 0 0;360 0 0" dur="7s" begin=".7s" repeatCount="indefinite"/>
    <line x1="0" y1="-22" x2="-2" y2="-30" stroke="#777" stroke-width="1.5"/>
    <circle cx="-2" cy="-32" r="2.5" fill="#883030"/>
    <rect x="-13" y="-22" width="26" height="18" rx="2" fill="#222" stroke="#888" stroke-width="1.2"/>
    <g><animate attributeName="opacity" values="1;.09;1;1;.07;1;1" keyTimes="0;.06;.1;.55;.6;.64;1" dur="2.7s" begin=".7s" repeatCount="indefinite"/>
      <line x1="-8" y1="-16" x2="-2" y2="-10" stroke="#883030" stroke-width="1.5"/>
      <line x1="-2" y1="-16" x2="-8" y2="-10" stroke="#883030" stroke-width="1.5"/>
      <line x1="2"  y1="-16" x2="8"  y2="-10" stroke="#883030" stroke-width="1.5"/>
      <line x1="8"  y1="-16" x2="2"  y2="-10" stroke="#883030" stroke-width="1.5"/>
    </g>
    <path d="M-6,-7 L-3,-5 L0,-7 L3,-5 L6,-7" fill="none" stroke="#883030" stroke-width="1.2" stroke-linecap="round" stroke-linejoin="round">
      <animate attributeName="d" values="M-6,-7 L-3,-5 L0,-7 L3,-5 L6,-7;M-6,-6 L-3,-8 L0,-6 L3,-8 L6,-6;M-6,-7 L-3,-5 L0,-7 L3,-5 L6,-7"
        dur="0.6s" begin=".7s" repeatCount="indefinite"/>
    </path>
    <rect x="-15" y="-2" width="30" height="18" rx="2" fill="#222" stroke="#888" stroke-width="1.2"/>
    <rect x="-27" y="0" width="10" height="6" rx="1.5" fill="#222" stroke="#777" stroke-width="1"/>
    <rect x="16"  y="0" width="10" height="6" rx="1.5" fill="#222" stroke="#777" stroke-width="1" transform="rotate(-72,16,3)"/>
    <rect x="-12" y="17" width="8" height="12" rx="1.5" fill="#222" stroke="#888" stroke-width="1.2"/>
    <rect x="4"   y="17" width="8" height="12" rx="1.5" fill="#222" stroke="#888" stroke-width="1.2"/>
  </g>

  <!-- R16 · X-eyes flicker · float (upside-down) -->
  <g transform="translate(242,278) rotate(177)">
    <animateTransform attributeName="transform" type="translate" additive="sum"
      values="0,0;0,-3;0,0" keyTimes="0;.5;1" calcMode="spline" keySplines=".45 0 .55 1;.45 0 .55 1"
      dur="3.1s" begin="1.1s" repeatCount="indefinite"/>
    <animateTransform attributeName="transform" type="rotate" additive="sum"
      values="0 0 0;-360 0 0" dur="5s" begin="1.1s" repeatCount="indefinite"/>
    <line x1="0" y1="-22" x2="0" y2="-30" stroke="#777" stroke-width="1.5"/>
    <circle cx="0" cy="-32" r="2.5" fill="#883030"/>
    <rect x="-13" y="-22" width="26" height="18" rx="2" fill="#222" stroke="#888" stroke-width="1.2"/>
    <g><animate attributeName="opacity" values="1;1;.05;1;1" keyTimes="0;.4;.44;.48;1" dur="3.8s" begin="1.1s" repeatCount="indefinite"/>
      <line x1="-8" y1="-16" x2="-2" y2="-10" stroke="#883030" stroke-width="1.5"/>
      <line x1="-2" y1="-16" x2="-8" y2="-10" stroke="#883030" stroke-width="1.5"/>
      <line x1="2"  y1="-16" x2="8"  y2="-10" stroke="#883030" stroke-width="1.5"/>
      <line x1="8"  y1="-16" x2="2"  y2="-10" stroke="#883030" stroke-width="1.5"/>
    </g>
    <path d="M-6,-7 L-3,-5 L0,-7 L3,-5 L6,-7" fill="none" stroke="#883030" stroke-width="1.2" stroke-linecap="round" stroke-linejoin="round">
      <animate attributeName="d" values="M-6,-7 L-3,-5 L0,-7 L3,-5 L6,-7;M-6,-6 L-3,-8 L0,-6 L3,-8 L6,-6;M-6,-7 L-3,-5 L0,-7 L3,-5 L6,-7"
        dur="0.58s" begin="1.1s" repeatCount="indefinite"/>
    </path>
    <rect x="-15" y="-2" width="30" height="18" rx="2" fill="#222" stroke="#888" stroke-width="1.2"/>
    <rect x="-27" y="0" width="10" height="6" rx="1.5" fill="#222" stroke="#777" stroke-width="1"/>
    <rect x="16"  y="0" width="10" height="6" rx="1.5" fill="#222" stroke="#777" stroke-width="1"/>
    <rect x="-12" y="17" width="8" height="12" rx="1.5" fill="#222" stroke="#888" stroke-width="1.2"/>
    <rect x="4"   y="17" width="8" height="12" rx="1.5" fill="#222" stroke="#888" stroke-width="1.2"/>
  </g>

  <!-- R17 · asymm eyes (big blink + small red) · drift -->
  <g transform="translate(313,274) rotate(56)">
    <animateTransform attributeName="transform" type="translate" additive="sum"
      values="0,0;1,-2;0,0" keyTimes="0;.5;1" calcMode="spline" keySplines=".45 0 .55 1;.45 0 .55 1"
      dur="3.8s" begin="1.5s" repeatCount="indefinite"/>
    <animateTransform attributeName="transform" type="rotate" additive="sum"
      values="0 0 0;360 0 0" dur="9s" begin="1.5s" repeatCount="indefinite"/>
    <line x1="0" y1="-22" x2="2" y2="-30" stroke="#777" stroke-width="1.5"/>
    <circle cx="2" cy="-32" r="2.5" fill="#888"/>
    <rect x="-13" y="-22" width="26" height="18" rx="2" fill="#222" stroke="#888" stroke-width="1.2"/>
    <ellipse cx="-5" cy="-13" rx="5" ry="5" fill="#bbb">
      <animate attributeName="ry" values="5;5;.5;5" keyTimes="0;.88;.91;1" dur="5.0s" begin="1.5s" repeatCount="indefinite"/>
    </ellipse>
    <circle cx="6" cy="-13" r="1.5" fill="#883030"/>
    <path d="M-5,-8 Q2,-5 5,-8" fill="none" stroke="#888" stroke-width="1.2" stroke-linecap="round">
      <animate attributeName="d" values="M-5,-8 Q2,-5 5,-8;M-5,-8 Q-2,-4 5,-8;M-5,-8 Q2,-5 5,-8"
        dur="4.0s" begin="1.5s" repeatCount="indefinite"/>
    </path>
    <rect x="-15" y="-2" width="30" height="18" rx="2" fill="#222" stroke="#888" stroke-width="1.2"/>
    <rect x="-27" y="0" width="10" height="6" rx="1.5" fill="#222" stroke="#777" stroke-width="1" transform="rotate(72,-17,3)"/>
    <rect x="16"  y="0" width="10" height="6" rx="1.5" fill="#222" stroke="#777" stroke-width="1"/>
    <rect x="-12" y="17" width="8" height="12" rx="1.5" fill="#222" stroke="#888" stroke-width="1.2"/>
    <rect x="4"   y="17" width="8" height="12" rx="1.5" fill="#222" stroke="#888" stroke-width="1.2"/>
  </g>

  <!-- R18 · normal eyes blink · float -->
  <g transform="translate(382,277) rotate(-25)">
    <animateTransform attributeName="transform" type="translate" additive="sum"
      values="0,0;0,-4;0,0" keyTimes="0;.5;1" calcMode="spline" keySplines=".45 0 .55 1;.45 0 .55 1"
      dur="2.5s" begin="1.9s" repeatCount="indefinite"/>
    <animateTransform attributeName="transform" type="rotate" additive="sum"
      values="0 0 0;-360 0 0" dur="6.5s" begin="1.9s" repeatCount="indefinite"/>
    <line x1="0" y1="-22" x2="0" y2="-30" stroke="#777" stroke-width="1.5"/>
    <circle cx="0" cy="-32" r="2.5" fill="#888"/>
    <rect x="-13" y="-22" width="26" height="18" rx="2" fill="#222" stroke="#888" stroke-width="1.2"/>
    <ellipse cx="-5" cy="-13" rx="3" ry="3" fill="#bbb">
      <animate attributeName="ry" values="3;3;.4;3" keyTimes="0;.89;.92;1" dur="4.6s" begin="1.9s" repeatCount="indefinite"/>
    </ellipse>
    <ellipse cx="5" cy="-13" rx="3" ry="3" fill="#bbb">
      <animate attributeName="ry" values="3;3;.4;3" keyTimes="0;.89;.92;1" dur="4.6s" begin="1.9s" repeatCount="indefinite"/>
    </ellipse>
    <path d="M-5,-8 Q0,-6 5,-8" fill="none" stroke="#888" stroke-width="1.2" stroke-linecap="round">
      <animate attributeName="d" values="M-5,-8 Q0,-6 5,-8;M-5,-8 Q0,-3 5,-8;M-5,-8 Q0,-6 5,-8"
        dur="2.2s" begin="1.9s" repeatCount="indefinite" calcMode="spline" keySplines=".4 0 .6 1;.4 0 .6 1"/>
    </path>
    <rect x="-15" y="-2" width="30" height="18" rx="2" fill="#222" stroke="#888" stroke-width="1.2"/>
    <rect x="-27" y="0" width="10" height="6" rx="1.5" fill="#222" stroke="#777" stroke-width="1"/>
    <rect x="16"  y="0" width="10" height="6" rx="1.5" fill="#222" stroke="#777" stroke-width="1"/>
    <rect x="-12" y="17" width="8" height="12" rx="1.5" fill="#222" stroke="#888" stroke-width="1.2"/>
    <rect x="4"   y="17" width="8" height="12" rx="1.5" fill="#222" stroke="#888" stroke-width="1.2"/>
  </g>

  <!-- R19 · ring eyes pulse · drift left -->
  <g transform="translate(450,275) rotate(39)">
    <animateTransform attributeName="transform" type="translate" additive="sum"
      values="0,0;-1,-3;0,0" keyTimes="0;.5;1" calcMode="spline" keySplines=".45 0 .55 1;.45 0 .55 1"
      dur="4.3s" begin="2.3s" repeatCount="indefinite"/>
    <animateTransform attributeName="transform" type="rotate" additive="sum"
      values="0 0 0;360 0 0" dur="12s" begin="2.3s" repeatCount="indefinite"/>
    <line x1="0" y1="-22" x2="2" y2="-30" stroke="#777" stroke-width="1.5"/>
    <circle cx="2" cy="-32" r="2.5" fill="#9a7028"/>
    <rect x="-13" y="-22" width="26" height="18" rx="2" fill="#222" stroke="#888" stroke-width="1.2"/>
    <circle cx="-5" cy="-13" r="3.5" fill="none" stroke="#9a7028" stroke-width="1.2">
      <animate attributeName="r" values="3.5;4.8;3.5" dur="1.7s" begin="2.3s" repeatCount="indefinite" calcMode="spline" keySplines=".4 0 .6 1;.4 0 .6 1"/>
      <animate attributeName="opacity" values=".9;.25;.9" dur="1.7s" begin="2.3s" repeatCount="indefinite" calcMode="spline" keySplines=".4 0 .6 1;.4 0 .6 1"/>
    </circle>
    <circle cx="-5" cy="-13" r="1.2" fill="#9a7028">
      <animate attributeName="opacity" values=".6;1;.6" dur="1.7s" begin="2.3s" repeatCount="indefinite"/>
    </circle>
    <circle cx="5" cy="-13" r="3.5" fill="none" stroke="#9a7028" stroke-width="1.2">
      <animate attributeName="r" values="3.5;4.8;3.5" dur="1.7s" begin="2.3s" repeatCount="indefinite" calcMode="spline" keySplines=".4 0 .6 1;.4 0 .6 1"/>
      <animate attributeName="opacity" values=".9;.25;.9" dur="1.7s" begin="2.3s" repeatCount="indefinite" calcMode="spline" keySplines=".4 0 .6 1;.4 0 .6 1"/>
    </circle>
    <circle cx="5" cy="-13" r="1.2" fill="#9a7028">
      <animate attributeName="opacity" values=".6;1;.6" dur="1.7s" begin="2.3s" repeatCount="indefinite"/>
    </circle>
    <ellipse cx="0" cy="-7" rx="3.5" ry="1.8" fill="#1b1b1b" stroke="#9a7028" stroke-width="1">
      <animate attributeName="ry" values="1.8;3.5;1.8" dur="1.7s" begin="2.3s" repeatCount="indefinite" calcMode="spline" keySplines=".4 0 .6 1;.4 0 .6 1"/>
    </ellipse>
    <rect x="-15" y="-2" width="30" height="18" rx="2" fill="#222" stroke="#888" stroke-width="1.2"/>
    <rect x="-27" y="0" width="10" height="6" rx="1.5" fill="#222" stroke="#777" stroke-width="1" transform="rotate(72,-17,3)"/>
    <rect x="16"  y="0" width="10" height="6" rx="1.5" fill="#222" stroke="#777" stroke-width="1" transform="rotate(-72,16,3)"/>
    <rect x="-12" y="17" width="8" height="12" rx="1.5" fill="#222" stroke="#888" stroke-width="1.2"/>
    <rect x="4"   y="17" width="8" height="12" rx="1.5" fill="#222" stroke="#888" stroke-width="1.2"/>
  </g>

  <!-- R20 · normal eyes blink · float -->
  <g transform="translate(496,273) rotate(-43)">
    <animateTransform attributeName="transform" type="translate" additive="sum"
      values="0,0;0,-2;0,0" keyTimes="0;.5;1" calcMode="spline" keySplines=".45 0 .55 1;.45 0 .55 1"
      dur="3.0s" begin="2.7s" repeatCount="indefinite"/>
    <animateTransform attributeName="transform" type="rotate" additive="sum"
      values="0 0 0;360 0 0" dur="5s" begin="2.7s" repeatCount="indefinite"/>
    <line x1="0" y1="-22" x2="-2" y2="-30" stroke="#777" stroke-width="1.5"/>
    <circle cx="-2" cy="-32" r="2.5" fill="#888"/>
    <rect x="-13" y="-22" width="26" height="18" rx="2" fill="#222" stroke="#888" stroke-width="1.2"/>
    <ellipse cx="-5" cy="-13" rx="3" ry="3" fill="#bbb">
      <animate attributeName="ry" values="3;3;.4;3" keyTimes="0;.87;.9;1" dur="5.3s" begin="2.7s" repeatCount="indefinite"/>
    </ellipse>
    <ellipse cx="5" cy="-13" rx="3" ry="3" fill="#bbb">
      <animate attributeName="ry" values="3;3;.4;3" keyTimes="0;.87;.9;1" dur="5.3s" begin="2.7s" repeatCount="indefinite"/>
    </ellipse>
    <path d="M-5,-8 Q0,-6 5,-8" fill="none" stroke="#888" stroke-width="1.2" stroke-linecap="round">
      <animate attributeName="d" values="M-5,-8 Q0,-6 5,-8;M-5,-8 Q0,-3 5,-8;M-5,-8 Q0,-6 5,-8"
        dur="1.9s" begin="2.7s" repeatCount="indefinite" calcMode="spline" keySplines=".4 0 .6 1;.4 0 .6 1"/>
    </path>
    <rect x="-15" y="-2" width="30" height="18" rx="2" fill="#222" stroke="#888" stroke-width="1.2"/>
    <rect x="-27" y="0" width="10" height="6" rx="1.5" fill="#222" stroke="#777" stroke-width="1" transform="rotate(72,-17,3)"/>
    <rect x="16"  y="0" width="10" height="6" rx="1.5" fill="#222" stroke="#777" stroke-width="1"/>
    <rect x="-12" y="17" width="8" height="12" rx="1.5" fill="#222" stroke="#888" stroke-width="1.2"/>
    <rect x="4"   y="17" width="8" height="12" rx="1.5" fill="#222" stroke="#888" stroke-width="1.2"/>
  </g>

  <!-- ── BORDER ──────────────────────────────────────────────────────── -->
  <rect x="70" y="86" width="460" height="228" fill="none" stroke="#c06060" stroke-width="1" rx="1"/>
  <rect x="61" y="77" width="478" height="246" fill="none" stroke="#aaa"   stroke-width="2" rx="1"/>
</svg>
